<svg id="Capa_1" enable-background="new 0 0 504.038 504.038" height="512" viewBox="0 0 504.038 504.038" width="512" xmlns="http://www.w3.org/2000/svg"><g><path d="m340.519 426.948v39.271l22.611 30.318h-221.223l22.612-30.318v-39.271-34.365h175.07z" fill="#d7d0d6"/><path d="m340.519 426.948-.93-34.365h-175.07v34.365 25.005 14.267l-22.612 30.318h73.294l14.778-19.814c1.507-2.02 2.321-4.473 2.321-6.993v-2.684c0-8.336 6.758-15.094 15.094-15.094h93.126v-25.005z" fill="#c9bfc8"/><path d="m458.161 302.582h-377.86l-76.083 80.17v15.58c0 15.8 12.82 28.62 28.62 28.62h438.36c15.8 0 28.62-12.82 28.62-28.62v-15.58z" fill="#e5e1e5"/><g><g id="XMLID_520_"><g><path d="m499.819 110.012v272.74h-495.6v-272.74c0-15.8 12.82-28.61 28.62-28.61h438.36c15.8 0 28.62 12.81 28.62 28.61z" fill="#99e6fc"/></g></g><path d="m130.299 398.333v-15.58-80.17h-49.998l-76.083 80.17v15.58c0 15.8 12.82 28.62 28.62 28.62h126.08c-15.799 0-28.619-12.821-28.619-28.62z" fill="#d7d0d6"/><g><path d="m377.039 504.038h-247.95c-4.143 0-7.5-3.357-7.5-7.5s3.357-7.5 7.5-7.5h247.95c4.143 0 7.5 3.357 7.5 7.5s-3.357 7.5-7.5 7.5z" fill="#e5e1e5"/></g><path d="m158.917 81.402h-13.297-112.781c-15.806 0-28.62 12.814-28.62 28.62v272.73h126.08v-272.74c0-6.303 2.041-12.128 5.498-16.854 3.188-4.359 10.071-2.707 10.799 2.644 7.051 51.882 51.638 91.996 105.423 91.996 58.668 0 106.397-47.729 106.399-106.396z" fill="#62dbfb"/><circle cx="252.019" cy="81.399" fill="#fef056" r="81.399"/><path d="m232.959 81.399c0-33.913 20.756-62.978 50.242-75.213-9.602-3.984-20.139-6.186-31.182-6.186-44.956 0-81.399 36.444-81.399 81.399s36.444 81.399 81.399 81.399c11.043 0 21.585-2.204 31.187-6.189-29.486-12.234-50.247-41.297-50.247-75.21z" fill="#fee903"/><g><path d="m242.077 120.542c-1.805 0-3.611-.648-5.044-1.95l-20.229-18.391c-3.065-2.786-3.291-7.53-.505-10.595 2.787-3.066 7.531-3.289 10.595-.505l15.03 13.664 48.276-46.613c2.981-2.878 7.728-2.793 10.605.186 2.877 2.98 2.794 7.729-.186 10.605l-53.332 51.494c-1.45 1.4-3.329 2.105-5.21 2.105z" fill="#f9f7f8"/></g><path d="m234.24 95.78-7.346-6.679c-3.063-2.784-7.808-2.562-10.595.505-2.786 3.064-2.561 7.809.505 10.595l20.229 18.391c1.433 1.302 3.239 1.95 5.044 1.95.296 0 .591-.024.885-.059-4.162-7.582-7.15-15.896-8.722-24.703z" fill="#efedef"/><path d="m390.45 277.496c6.646 0 12.033-5.387 12.033-12.033v-44.319c0-6.646-5.387-12.033-12.033-12.033h-276.863c-6.646 0-12.033 5.387-12.033 12.033v44.319c0 6.646 5.387 12.033 12.033 12.033z" fill="#dff6fd"/><path d="m130.299 209.111h-16.712c-6.646 0-12.033 5.387-12.033 12.033v44.319c0 6.646 5.387 12.033 12.033 12.033h16.712z" fill="#c8effe"/><path d="m329.91 282.584-56.533-18.009c-2.867-.913-5.826 1.12-6.002 4.124l-3.459 59.231c-.224 3.829 4.052 6.24 7.213 4.068l17.373-11.938 17.995 26.188c1.364 1.984 4.078 2.488 6.062 1.124l18.06-12.41c1.984-1.364 2.488-4.077 1.124-6.062l-17.995-26.188 17.373-11.938c3.161-2.17 2.443-7.026-1.211-8.19z" fill="#f47c7c"/></g></g></svg>