<?xml version="1.0" encoding="iso-8859-1"?>
<!-- Generator: Adobe Illustrator 19.0.0, SVG Export Plug-In . SVG Version: 6.00 Build 0)  -->
<svg version="1.1" id="Capa_1" xmlns="http://www.w3.org/2000/svg" xmlns:xlink="http://www.w3.org/1999/xlink" x="0px" y="0px"
	 viewBox="0 0 512 512" style="enable-background:new 0 0 512 512;" xml:space="preserve">
<circle style="fill:#FF0335;" cx="256" cy="256" r="256"/>
<path style="fill:#990011;" d="M512,256c0-6.62-0.252-13.182-0.745-19.676L368.211,93.281C339.171,62.255,300.499,45.884,256,45.884
	c-46.415,0-86.499,17.8-115.916,51.477c-25.341,29.01-41.953,68.968-46.776,112.512c-0.268,2.422,0.766,4.725,2.65,6.132
	l11.44,10.848l146.156,233.884l47.335,47.336C420.869,486.851,512,382.07,512,256z"/>
<polygon style="fill:#FFFFFF;" points="413.993,211.826 408.905,208.646 270.949,429.409 356.107,215.117 350.531,212.901 
	262.08,435.478 291.136,217.235 285.189,216.443 256,435.682 226.811,216.443 220.864,217.235 249.92,435.478 161.469,212.901 
	155.893,215.117 241.051,429.409 103.095,208.646 98.007,211.826 253.554,460.737 258.446,460.737 "/>
<polygon style="fill:#DFCDBD;" points="413.99,211.83 410.62,217.22 258.45,460.74 256,460.74 256,435.68 284.32,222.94 
	285.19,216.44 290.09,217.09 291.14,217.23 290.27,223.75 262.08,435.48 347.08,221.57 347.09,221.56 350.53,212.9 352.93,213.86 
	356.11,215.12 352.54,224.1 270.95,429.41 405.75,213.69 408.9,208.65 "/>
<path style="fill:#FFAA20;" d="M418.693,209.874c-4.823-43.545-21.435-83.503-46.776-112.513
	C342.498,63.684,302.415,45.884,256,45.884s-86.499,17.8-115.916,51.477c-25.341,29.01-41.953,68.968-46.776,112.512
	c-0.328,2.967,1.297,5.755,4.045,6.937c2.71,1.166,5.809,0.442,7.71-1.805c5.612-6.634,13.809-10.439,22.489-10.439
	c11.051,0,21.078,6.104,26.167,15.928c1.156,2.232,3.434,3.618,5.945,3.618c2.512,0,4.79-1.387,5.947-3.618
	c5.088-9.825,15.115-15.928,26.166-15.928s21.078,6.104,26.166,15.928c1.156,2.232,3.435,3.618,5.947,3.618
	c2.511,0,4.79-1.387,5.946-3.618c5.088-9.825,15.115-15.928,26.166-15.928s21.078,6.104,26.166,15.928
	c1.156,2.232,3.434,3.618,5.945,3.618c2.512,0,4.79-1.387,5.947-3.618c5.088-9.825,15.115-15.928,26.166-15.928
	s21.078,6.104,26.166,15.928c1.156,2.232,3.435,3.618,5.947,3.618s4.79-1.387,5.946-3.618c5.088-9.825,15.115-15.928,26.166-15.928
	c8.679,0,16.876,3.805,22.489,10.439c1.9,2.246,4.998,2.97,7.709,1.805C417.395,215.628,419.021,212.84,418.693,209.874z"/>
<path style="fill:#FF8900;" d="M414.65,216.81c-1.31,0.57-2.72,0.69-4.03,0.41c-1.4-0.3-2.7-1.05-3.68-2.21
	c-0.38-0.46-0.78-0.9-1.19-1.32c-5.55-5.82-13.21-9.12-21.3-9.12c-11.05,0-21.08,6.1-26.17,15.92c-1.12,2.18-3.31,3.55-5.74,3.61
	c-0.07,0.01-0.13,0.01-0.2,0.01c-0.05,0-0.1,0-0.15-0.01c-0.26,0-0.52-0.02-0.78-0.05c-0.15-0.03-0.3-0.05-0.45-0.08
	s-0.3-0.07-0.45-0.11c-0.14-0.04-0.29-0.09-0.43-0.14c-0.59-0.21-1.14-0.5-1.65-0.87c-0.12-0.08-0.23-0.17-0.35-0.27
	c-0.24-0.19-0.47-0.41-0.69-0.65c-0.1-0.11-0.21-0.24-0.31-0.36c-0.04-0.06-0.09-0.13-0.13-0.19c-0.13-0.15-0.24-0.32-0.34-0.49
	c-0.07-0.13-0.15-0.26-0.22-0.4c-0.96-1.84-2.08-3.55-3.36-5.12c-0.22-0.26-0.43-0.51-0.65-0.77c-0.44-0.5-0.9-0.99-1.37-1.46
	c-5.43-5.42-12.85-8.57-20.78-8.57c-7.94,0-15.36,3.15-20.79,8.57c-0.24,0.23-0.47,0.47-0.7,0.72c-1.83,1.95-3.41,4.18-4.68,6.63
	c-0.1,0.2-0.21,0.39-0.33,0.57c-0.02,0.03-0.04,0.06-0.07,0.09c-0.19,0.31-0.42,0.59-0.67,0.85c-0.33,0.36-0.7,0.68-1.1,0.94
	c-0.08,0.06-0.17,0.12-0.25,0.17c-0.05,0.04-0.11,0.07-0.16,0.09c-0.22,0.13-0.45,0.25-0.69,0.35c-0.14,0.06-0.28,0.12-0.42,0.17
	c-0.03,0.02-0.07,0.03-0.1,0.03c-0.12,0.04-0.24,0.08-0.37,0.12c-0.13,0.03-0.27,0.07-0.41,0.1c-0.45,0.09-0.91,0.14-1.38,0.14
	c-1.09,0-2.15-0.27-3.09-0.75c-0.24-0.12-0.47-0.26-0.7-0.42c-0.89-0.61-1.63-1.45-2.15-2.45c-5.09-9.82-15.12-15.92-26.17-15.92
	V45.96c-0.02-0.02-0.04-0.03-0.05-0.04v-0.03c0,0-0.01,0-0.03,0.02c-0.01,0-0.02,0-0.02,0c-0.04-0.02-0.05-0.03-0.05-0.03H256
	c46.42,0,86.5,17.8,115.92,51.48c25.34,29.01,41.95,68.97,46.77,112.51C419.02,212.84,417.4,215.63,414.65,216.81z"/>
<path style="fill:#FFFFFF;" d="M352.192,224.117c-2.456-0.057-4.664-1.438-5.807-3.622c-5.082-9.825-15.111-15.926-26.159-15.926
	s-21.077,6.101-26.17,15.926c-0.872,1.686-2.377,2.886-4.154,3.384c-0.566,0.158-1.177,0.238-1.789,0.238
	c-2.513,0-4.788-1.392-5.943-3.622c-5.094-9.825-15.123-15.926-26.17-15.926c-11.048,0-21.077,6.101-26.17,15.926
	c-1.155,2.23-3.43,3.622-5.943,3.622c-0.668,0-1.324-0.102-1.936-0.283c-1.709-0.521-3.158-1.698-4.007-3.339
	c-5.094-9.825-15.123-15.926-26.17-15.926s-21.077,6.101-26.159,15.926c-1.166,2.23-3.441,3.622-5.954,3.622
	c-13.425-148.147,91.924-177.091,96.191-178.2v-0.034c0,0,0.011,0.011,0.045,0.023c0,0,0.011,0,0.023,0
	c0.011,0,0.023-0.011,0.034-0.011c0.034-0.011,0.045-0.011,0.045-0.011v0.034C260.256,47.026,365.616,75.97,352.192,224.117z"/>
<path style="fill:#FFF5CB;" d="M352.93,213.86c-0.18,3.35-0.42,6.76-0.74,10.24c0,0.01,0,0.01,0,0.02
	c-0.26-0.01-0.52-0.03-0.78-0.07c-0.15-0.03-0.3-0.05-0.45-0.08s-0.3-0.07-0.45-0.11c-0.14-0.04-0.29-0.09-0.43-0.14
	c-0.59-0.21-1.14-0.5-1.65-0.87c-0.12-0.08-0.23-0.17-0.35-0.27c-0.24-0.19-0.47-0.41-0.69-0.65c-0.1-0.12-0.21-0.24-0.3-0.37
	c-0.06-0.06-0.1-0.12-0.14-0.18c-0.13-0.15-0.24-0.32-0.34-0.49c-0.08-0.13-0.16-0.26-0.23-0.4c-0.95-1.84-2.08-3.55-3.35-5.12
	c-0.22-0.26-0.43-0.51-0.65-0.77c-0.44-0.5-0.9-0.99-1.37-1.46c-5.43-5.42-12.85-8.57-20.78-8.57c-7.94,0-15.36,3.15-20.79,8.57
	c-0.24,0.24-0.47,0.48-0.7,0.72c-1.83,1.95-3.41,4.18-4.68,6.63c-0.1,0.2-0.21,0.39-0.33,0.57c-0.02,0.03-0.04,0.06-0.07,0.09
	c-0.2,0.31-0.42,0.59-0.67,0.85c-0.33,0.36-0.7,0.68-1.1,0.94c-0.08,0.06-0.17,0.12-0.25,0.17c-0.05,0.04-0.11,0.07-0.16,0.09
	c-0.22,0.13-0.45,0.25-0.69,0.35c-0.14,0.06-0.28,0.12-0.42,0.17c-0.03,0.02-0.07,0.03-0.1,0.03c-0.12,0.06-0.25,0.09-0.37,0.13
	c-0.13,0.04-0.27,0.07-0.41,0.09c-0.45,0.1-0.92,0.15-1.38,0.15c-1.09,0-2.15-0.27-3.09-0.76c-0.24-0.12-0.47-0.26-0.7-0.42
	c-0.89-0.61-1.63-1.45-2.15-2.45c-5.09-9.82-15.12-15.92-26.17-15.92V45.96c-0.02-0.02-0.04-0.03-0.05-0.04v-0.03
	c0.04-0.01,0.05-0.01,0.05-0.01v0.04C260.16,47,360.72,74.62,352.93,213.86z"/>
<path style="fill:#00EFD1;" d="M289.901,223.879c-0.566,0.158-1.177,0.238-1.789,0.238c-2.513,0-4.788-1.392-5.943-3.622
	c-5.094-9.825-15.123-15.926-26.17-15.926c-11.048,0-21.077,6.101-26.17,15.926c-1.155,2.23-3.43,3.622-5.943,3.622
	c-0.668,0-1.324-0.102-1.936-0.283c-4.686-147.898,32.441-176.808,33.947-177.917v-0.034c0,0,0.011,0.011,0.023,0.023
	c0.023-0.011,0.034-0.023,0.034-0.023v0.034C257.46,47.026,294.576,75.936,289.901,223.879z"/>
<path style="fill:#00AD95;" d="M290.09,217.09c-0.05,2.23-0.12,4.49-0.19,6.78v0.01c-0.13,0.04-0.27,0.07-0.41,0.09
	c-0.45,0.1-0.92,0.15-1.38,0.15c-1.09,0-2.15-0.27-3.09-0.76c-0.24-0.12-0.47-0.26-0.7-0.42c-0.89-0.61-1.63-1.45-2.15-2.45
	c-5.09-9.82-15.12-15.92-26.17-15.92V45.96C258.08,47.52,293.41,76.32,290.09,217.09z"/>
<path style="fill:#E1B5EC;" d="M256,45.88v0.08c-0.02-0.02-0.04-0.03-0.05-0.04v-0.03c0,0-0.01,0-0.03,0.02c-0.01,0-0.02,0-0.02,0
	c-0.04-0.02-0.05-0.03-0.05-0.03S256,45.88,256,45.88z"/>
<path style="fill:#00EFD1;" d="M255.9,45.88c0,0,0.01,0.01,0.02,0.03c-0.01,0-0.02,0-0.02,0V45.88z"/>
<g>
</g>
<g>
</g>
<g>
</g>
<g>
</g>
<g>
</g>
<g>
</g>
<g>
</g>
<g>
</g>
<g>
</g>
<g>
</g>
<g>
</g>
<g>
</g>
<g>
</g>
<g>
</g>
<g>
</g>
</svg>
