<svg height="512" viewBox="0 0 58 60" width="512" xmlns="http://www.w3.org/2000/svg"><g id="Page-1" fill="none" fill-rule="evenodd"><g id="053---Speech-Box" fill-rule="nonzero"><path id="Shape" d="m21 8h33c2.209139 0 4 1.790861 4 4v36c0 2.209139-1.790861 4-4 4h-50c-2.209139 0-4-1.790861-4-4v-36c0-2.209139 1.790861-4 4-4z" fill="#ff5364"/><path id="Shape" d="m8 4c-.35204268.00487218-.70183622.05700487-1.04.155.5512522-1.21342215 1.7125001-2.0366094 3.04-2.155.5522847 0 1-.44771525 1-1s-.4477153-1-1-1c-3.309 0-6 3.589-6 8 0 2.209139 1.790861 4 4 4s4-1.790861 4-4-1.790861-4-4-4z" fill="#f0c419"/><path id="Shape" d="m18 4c-.3520427.00487218-.7018362.05700487-1.04.155.5512522-1.21342215 1.7125001-2.0366094 3.04-2.155.5522847 0 1-.44771525 1-1s-.4477153-1-1-1c-3.309 0-6 3.589-6 8 0 2.209139 1.790861 4 4 4s4-1.790861 4-4-1.790861-4-4-4z" fill="#f0c419"/><path id="Shape" d="m50 48c-2.209139 0-4 1.790861-4 4s1.790861 4 4 4c.3520427-.0048722.7018362-.0570049 1.04-.155-.5512522 1.2134222-1.7125001 2.0366094-3.04 2.155-.5522847 0-1 .4477153-1 1s.4477153 1 1 1c3.309 0 6-3.589 6-8 0-2.209139-1.790861-4-4-4z" fill="#f0c419"/><path id="Shape" d="m40 48c-2.209139 0-4 1.790861-4 4s1.790861 4 4 4c.3520427-.0048722.7018362-.0570049 1.04-.155-.5512522 1.2134222-1.7125001 2.0366094-3.04 2.155-.5522847 0-1 .4477153-1 1s.4477153 1 1 1c3.309 0 6-3.589 6-8 0-2.209139-1.790861-4-4-4z" fill="#f0c419"/><g fill="#ecf0f1"><rect id="Rectangle-path" height="4" rx="2" width="46" x="6" y="16"/><rect id="Rectangle-path" height="4" rx="2" width="34" x="6" y="24"/><rect id="Rectangle-path" height="4" rx="2" width="8" x="44" y="24"/><rect id="Rectangle-path" height="4" rx="2" transform="matrix(-1 0 0 -1 77 68)" width="27" x="25" y="32"/><rect id="Rectangle-path" height="4" rx="2" transform="matrix(-1 0 0 -1 27 68)" width="15" x="6" y="32"/><rect id="Rectangle-path" height="4" rx="2" transform="matrix(-1 0 0 -1 38 84)" width="26" x="6" y="40"/></g></g></g></svg>